<svg class="icon icon-audio" viewBox="0 0 512 512" version="1.1" xmlns="http://www.w3.org/2000/svg">
<path fill="currentColor" opacity="1.00" d=" M 279.08 21.13 C 284.57 16.34 293.13 15.73 299.22 19.72 C 304.44 22.90 307.43 29.02 307.20 35.08 C 307.20 182.39 307.20 329.70 307.20 477.01 C 307.29 481.33 305.93 485.73 303.04 488.99 C 297.42 495.82 286.45 496.86 279.60 491.30 C 224.23 447.01 168.86 402.71 113.49 358.42 C 86.34 358.32 59.18 358.54 32.04 358.31 C 14.76 357.65 -0.09 342.05 0.00 324.78 L 0.00 186.46 C 0.35 169.11 15.65 153.80 33.04 153.65 C 59.86 153.52 86.68 153.65 113.51 153.59 C 168.69 109.43 223.89 65.29 279.08 21.13 Z" />
<path fill="currentColor" opacity="1.00" d=" M 418.43 86.54 C 424.64 80.80 435.17 80.88 441.25 86.79 C 451.53 96.92 460.93 107.96 469.20 119.80 C 496.85 158.85 511.68 206.54 512.00 254.33 L 512.00 258.64 C 511.62 279.20 508.94 299.77 503.40 319.60 C 493.10 357.45 472.95 392.53 445.67 420.70 C 442.86 423.61 440.15 426.89 436.27 428.40 C 429.32 431.41 420.58 429.05 416.10 422.96 C 411.81 417.44 411.52 409.25 415.37 403.43 C 417.24 400.67 419.77 398.46 422.02 396.03 C 438.21 379.06 451.42 359.23 460.83 337.75 C 479.76 294.76 482.92 245.17 470.09 200.03 C 461.32 168.88 444.78 139.99 422.55 116.49 C 419.98 113.69 417.00 111.20 414.99 107.94 C 410.87 101.17 412.38 91.67 418.43 86.54 Z" />
<path fill="currentColor" opacity="1.00" d=" M 375.41 131.55 C 381.32 129.21 388.51 130.52 393.13 134.91 C 412.20 153.52 426.77 176.74 435.09 202.07 C 450.52 248.49 445.11 301.59 419.69 343.51 C 412.28 355.79 403.30 367.11 393.04 377.12 C 386.64 383.27 375.46 382.96 369.41 376.47 C 364.66 371.73 363.19 364.10 365.85 357.93 C 367.27 354.29 370.31 351.73 372.92 348.96 C 394.44 326.38 407.46 296.05 409.28 264.93 C 411.92 227.68 398.51 189.49 372.48 162.60 C 369.18 159.37 365.77 155.82 364.93 151.09 C 363.00 143.15 367.77 134.37 375.41 131.55 Z" />
</svg>