<svg class="icon icon-mute" viewBox="0 0 512 512" version="1.1" xmlns="http://www.w3.org/2000/svg">
<path fill="currentColor" opacity="1.00" d=" M 16.66 0.00 L 19.44 0.00 C 24.19 0.49 28.72 2.61 31.98 6.13 C 189.30 163.44 346.60 320.77 503.94 478.07 C 508.00 481.65 511.22 486.29 512.00 491.77 L 512.00 495.25 C 511.20 503.66 504.41 510.65 496.13 512.00 L 491.72 512.00 C 487.51 511.31 483.47 509.51 480.50 506.40 C 454.42 480.33 428.37 454.23 402.27 428.18 C 402.18 450.10 402.32 472.02 402.20 493.94 C 402.31 503.15 394.64 511.24 385.52 512.00 L 383.29 512.00 C 379.05 511.70 375.00 509.99 371.75 507.28 C 313.18 460.45 254.56 413.68 196.00 366.85 C 194.08 365.06 191.28 365.88 188.93 365.71 C 162.28 365.74 135.62 365.77 108.97 365.70 C 93.59 365.59 79.16 354.62 74.80 339.90 C 73.22 335.09 73.08 329.99 73.15 324.97 C 73.18 277.64 73.13 230.31 73.17 182.98 C 72.96 166.61 85.24 151.21 101.08 147.41 C 107.40 145.84 113.95 146.47 120.39 146.32 C 82.18 108.01 43.89 69.79 5.65 31.52 C 2.37 28.38 0.50 24.05 0.00 19.58 L 0.00 16.75 C 0.84 8.11 8.05 0.94 16.66 0.00 Z" />
<path fill="currentColor" opacity="1.00" d=" M 381.82 0.00 L 386.04 0.00 C 395.22 1.21 402.67 9.62 402.23 18.96 C 402.25 120.89 402.26 222.81 402.23 324.74 C 338.35 260.92 274.52 197.06 210.68 133.20 C 264.36 90.35 318.12 47.60 371.81 4.76 C 374.67 2.32 378.15 0.77 381.82 0.00 Z" />
</svg>