<svg xmlns="http://www.w3.org/2000/svg" class="icon icon-bag" viewBox="0 0 512 512" version="1.1">
<path fill="currentColor" opacity="1.00" d=" M 179.62 48.67 C 198.15 30.71 223.15 19.56 248.93 18.02 C 272.49 16.45 296.50 22.71 316.21 35.74 C 341.43 52.16 359.47 79.23 364.54 108.93 C 366.83 121.09 366.10 133.50 366.22 145.80 C 386.80 145.83 407.38 145.74 427.96 145.85 C 440.85 146.20 451.92 158.04 451.54 170.91 C 451.56 270.29 451.56 369.67 451.54 469.06 C 451.75 479.18 445.08 488.97 435.60 492.52 C 430.03 494.85 423.89 494.07 418.01 494.20 C 307.01 494.19 196.01 494.21 85.01 494.19 C 72.10 494.31 60.53 482.88 60.48 469.98 C 60.41 370.32 60.46 270.65 60.45 170.98 C 59.93 156.95 73.07 144.60 87.02 145.79 C 106.61 145.82 126.19 145.79 145.78 145.80 C 145.92 134.53 145.23 123.19 146.95 112.01 C 150.38 88.03 162.14 65.41 179.62 48.67 M 251.21 39.25 C 231.46 40.25 212.14 48.13 197.34 61.25 C 182.38 74.31 172.02 92.52 168.54 112.08 C 166.41 123.20 167.30 134.56 167.11 145.80 C 226.37 145.80 285.63 145.80 344.89 145.80 C 344.73 133.87 345.64 121.79 343.05 110.04 C 338.60 87.97 325.30 67.90 306.82 55.09 C 290.76 43.76 270.83 38.15 251.21 39.25 M 81.81 170.92 C 81.72 269.28 81.82 367.65 81.76 466.01 C 81.34 468.91 82.00 473.32 85.89 472.86 C 199.27 472.87 312.65 472.87 426.02 472.86 C 428.24 473.16 430.45 471.33 430.19 469.01 C 430.27 370.01 430.20 271.00 430.23 172.00 C 430.53 169.87 429.42 167.23 426.97 167.20 C 406.72 167.04 386.47 167.18 366.22 167.14 C 366.20 177.75 366.26 188.37 366.19 198.99 C 366.28 203.63 362.99 208.03 358.54 209.31 C 352.44 211.34 345.39 206.52 344.99 200.13 C 344.75 189.14 344.96 178.13 344.89 167.13 C 285.63 167.13 226.37 167.13 167.11 167.13 C 167.08 177.78 167.16 188.43 167.08 199.08 C 167.14 203.69 163.85 208.03 159.44 209.30 C 153.31 211.36 146.22 206.48 145.87 200.06 C 145.65 189.09 145.85 178.11 145.78 167.14 C 125.84 167.14 105.89 167.12 85.95 167.14 C 83.77 166.84 81.57 168.63 81.81 170.92 Z"/>
</svg>